<mxfile host="Electron" agent="Mozilla/5.0 (Windows NT 10.0; Win64; x64) AppleWebKit/537.36 (KHTML, like Gecko) draw.io/24.7.8 Chrome/128.0.6613.36 Electron/32.0.1 Safari/537.36" version="24.7.8">
  <diagram name="Page-1" id="BklLyzl69CtsFnxPu8M-">
    <mxGraphModel dx="910" dy="823" grid="1" gridSize="10" guides="1" tooltips="1" connect="1" arrows="1" fold="1" page="1" pageScale="1" pageWidth="850" pageHeight="1100" math="0" shadow="0">
      <root>
        <mxCell id="0" />
        <mxCell id="1" parent="0" />
        <mxCell id="a-y4toOQ26onBlMXvGrg-2" value="" style="shape=image;verticalLabelPosition=bottom;labelBackgroundColor=default;verticalAlign=top;aspect=fixed;imageAspect=0;image=data:image/png,iVBORw0KGgoAAAANSUhEUgAAAYAAAAB9CAYAAACrvLTMAAAAAXNSR0IArs4c6QAAAARnQU1BAACxjwv8YQUAAAAJcEhZcwAADsMAAA7DAcdvqGQAACG8SURBVHhe7Z0LeBXVtceXhCTkQV6EEBIC4f1I5CVQRVEKCD4KKCpFrKVc8ROvaFHrtdVCqdZ6lSt6ld6LCp/lVpGitVWqiPKy+EAe8hAQI+8QSCAmhLzIA7z5r8w67DOck5wkJ5CTWb/vm2/O7D2zZ+89M/+19tpzzrkkLS3tB1IURVEcRwtrrSiKojgMNQCKoigORQ2AoiiKQ1EDoCiK4lDUACiKojgUNQCKoigORQ2AoiiKQ1EDoCiK4lAuqgHoefVUGjD+cWvrfJA/6oG3ePG2n+yTnDbSSmnapKen04IFC2jSpElWitJQpk6dSm+++Sb179/fSvEO9lm8eDGNHTvWSmk8OnbsSK+++io9/rj3e7wmcNzzzz9vbfmXuvSZ4hu4Xu+++y4vjXXdvIHriHutrtezSY8Avv3Xa7Tqxdsoc9sHVsqFYfTo0bRw4UIWCllmzpxp5Tob3Nj1ETQcJw8HloshPhDk++67jzIyMmj58uWcBkPw9ttvu9WtvoKtnDN6Zn96utayH/reboztZeAz0i4E9vvBU/288dRTT9H48eNp48aNVso5TOMgC4ywHXlOPOWZZdjrtW3bNjp48CDf33Xpq4APAYmRyNq12krxD5WVlfTGG2/QlClTeN2rVy82DEr92b9/Pz8gWLKzs7lvLyR33nknr//yl7/wWqioqGCDj3phjVGarw+94hmIoHmtH330UTcj0K9fPyovL6ddu3ZR3759rdRq8Z81axaLGY69//77Of3BBx/kdWOC+k2ePJnef/99V91vvfVWl7PQUI4fP87tQbn/+Mc/6KabbnITepw/MjKSPvnkE7c+ARD/1NRU1/Fbt27lupp9CgNUVFTkus99oUEGICy6HV0++b84/PLje1/nUAy2g1tFcj7SzW3sf+WU+RTXsR9vCwjvSKjH11AOyrp62kI+Bue2lwnMfex1qwu4SYuLiykuLs5KIR4RmCMEM6QjYR7Je+655yg5OdnKdUdGGzXtYwcXHV6VeAPiIYnnhJtKPAm7p4A8b14E8OZlSHqXLl1oyJAhrn3Moa69XjjGGzt27OCbXbwVb20SUA/UR/LN89qRuprnR/k9evSg9957jw4fPmylns/27dv5IYqPj7dS3PsEi907M0c3nvpUkDZ68ohrwizfLhiN2Wf+AudFn954441WCrHAwQBs3ryZkpKSXPUeObL6+RcjjWuFa4Znr7Y+Qz764JlnnuG2/P73v+dtuSboO3vfm2kDBgzgNIirN8znB0tdr6Xw2muvsZEcOnSoq+1y/i1btvCzIeVibb930T/oUzlGWLNmDe/ra50aPAIICY+hrlfcThuWPEyfvFJ9c3YZchuvfaFNp/5Ukn+UvfhvVi/gsiDctVFakEP/WjiNPls8g8pLTlqp50AZg297inIyPuOysWxY8iuqOF1k7eE7aWlpFBISQjt37uRtiD1GBHPnzmUvdsWKFTRq1CgWc4g4bpI9e/Zw3mOPPcbH3HPPPbw2wf4TJ06kVatW0cMPP0xZWVlWjndwYeFNoS7ipdx9991uogbPIjc3l/MyMzNpxIgRnI6HQAwO8uDpmF4E8ktLS13l4kEYN24c36AyvIUXb3p34plhHww/pV6/+93v2BCagmUCAYCXh3rbj7V7faif6Zmh7MTERI9ihTScF/ugzgIeFAgOBL4m4JniWosIoP5SHs4Nzw1CJiKP8+FhrckzA+Z1u/3223nI7gswuHItcW5cP5R1IfrMX+Aam0YVdYc3CycA9yf6D/0OYAywr3k/Yx9cE7vYeQJlYV/0Ffrg888/5+Nxv8k1NctBOkYouB6Sbx+tCPbnB2vcU/Xl6NGjXF9xLOWZOHDgAG9LPVNSUniNdgjSpzjGBPc36uRLX4EGG4AzFadp50cvsSBDXPOP7KLw2CQrt3a+P7SNwzgg70i1wMZ1SOd1Q+jY7wY2DPs3vmWl1I2WLVvSHXfcwR481p999hk/bBD4wYMHs8BjGyxdupQvZp8+fWjYsGEUERHBog4g6itXrqTY2Fh+yAQ8BCL+ON5XID648PYwhglEWh5k09PGzYI6y5B29erVXJbcLEifN28efwY4Fg+TOfLxhgzppV54oHAu8waFmInnhDrJvvD6sA2xAri5Ta9P2oz6ApT90UcfsYigXQKEFX0MD9AusJ6ERQgODqZp06ZxvbBet24dH4+y4aGhHVIePDcRFNQN54PISLmePLOoqCiX+NdVYM1raQrYhegzfwIjJphGFufMy8tz3ScwEua+APloiy/gHoQXDBBykfYDnMu8J9FP6C/ZH/noDxgEjB5wP5gODBwp8/lpKGinGBCpC545XEsYArNPsB/6wcTeTwDHoq9wv/tCo8wBhEbE1ivUUllW7NGbrw8wQmXF+fXy+IE5BwBPf/jw4W4TwbhJvIFwUX5+vrXlGYwqcA7cUHUBN4M3IRNwEwkQLBkh4FgzfPPSSy9RQkKCtWe1UcKQWfIhhnhQfQFld+jQgcuU43EuE3MOADc4RAc3PkCb7De4SW1tDg8P51GZeHN2UD9vmHMA8ILh5ZmeMoy7N/BgenoQTVAvGBnzutQHuxA2dp/5E7P/IWyot5wT/SKGCX1pv1YQRtyHtfWzL+BcYiRhSFEPu6BjFIV7QeL0nkZN/gDtlOcLdcG9JCNUs55otydHDMd76hNPfeiNRjEA9RXelqERFBTcikoLG36hEVbyFxBpePzmBcBwWsCoAF6/gM/w+AUcBwEwQdgIHgo8DF9j/6ChD4EZvpEFRgJI+EDCGXUd4pqTXLJImXbguaJsGd6aQ2FgPhxARjGC3cMpKSlh4+UtzOFrv4mXaD5A5rlQB9RFQB3NfdEGMx+gz72FhuoCyjaFsLH7zF+gzTgH6o36QOzN0SBEFs8LRgYSFjHr7SkEUl/MEAkMUU1GGc8FnBZfxbSu4PxixPEZzpg4UHC+YmJiuJ7SbukHIPehJ+cE9fX1fverAcBEbFLaSDq+d4OVUj1HAGHHiKDfjY/wtjcQtkFIqfD4Piul/pw4+BXFJPX2y/cDMESGp7R7924O6eCCYFtCOmbYRzx6zAkATyEj4eWXX+a1p/kBb+CGxY3gLbZeEzgWN5TErz0hXiNuMMT/TUEBuLHsYQQAgcMN6esbCAhRiMcjoQ2kAZRthl5QbwiETBBCUOyhF3DkyBFasmQJt9HeP56ExRNSNs6JsjFSwbYItxl6Qd3gPaOuUq499CIgjIN96/qansmF7jOUaU6i1geUgTajTxAeEyMmIy4scBowYoYI2u8jHI/7EK/uyoihIaDt6AOM8lAP+3UyMQ0XMO995MGg258PX4HBxXOMsB1AmzHiMJ0nGB/0CdoNIyHzcUD6x15/5KOsmkatJg36RzCZaA0Jj7ZSiCdyzVcyB4x/nCd6wf4v36L2va6mb9a+SnmHt/OXuFL638B5oCj3EG15Zw6PHmAwLpswhyLjO1m51WDOYOu7T7Gw9x453Uqt5kxFGW1/fy6XDWCQYHSCgkN52yy/JnBzID5veu24MV944QVrq/otIDw0ACGEZcuWcYwV4EGbMWMGhYWF8fahQ4do9uzZ/FnyEGdG7F+2wfz5888zEp7Aw4jQlNQPnveTTz7Jn/EKHW5w8ert4CGHxyXAC5T4r71cpOGGx1sc8vDhBsM5JHSEm9SceESsG6EFATc16oIy4PUJ5nmB/VizXGCvG7xqiY2jTbhmUp600VPdcI3MvrGXC8yyAR5WCWfhWmNeyAwbmG0z2yV9BSOC8mQbwmwvwxPmeYFcZxHwxu4zIHWQ61gb9vsDmGXiPDBUZjsAzoN7DekwEma77NfDG+gPnAcGC16wnAdpEG8pQ/oNz5q36yyY5zbbhvsAzxlGLbj+EGh7u4G03V62/bnD66bmcwbs18i8z+z3guCtLG802AAMvGmWS9AVpSljioz9wVE8AxHCKMMXgxUomIaiIW2qq9heCFAX09jVRqPMAShKUwQhCFCXL8o4FYgk3nFvbuIPMCryNPkb6MDBQfhH7nNfUAOgOAZ4/X/605/4izLw3hTvwKPFK5H+/CbsxQbeMSZYIZL43JyAwcboFvd3XUa3DQoBKYqiKIGLjgAURVEcihoARVEUh6IGQFEUxaGoAVAURXEoagAURVEcit8MAH4iGe8L43fw8e1WRVEUpWnjFwMAwcevZeIHzqZPn+7TzxkoiqIoFxe/GAD8yiB+G0OFX1EUJXDQOQBFURSHogZAURTFofjFAODnW/E75bX9C5aiKIrSdGjQbwHJ7+bjzwfk9+4VRVGUwMAvPwaHV0Dxr1f4Q3H8Y5aiKIrS9PFLCAi/rY2/RjP/B1dRFEVp2ugksKIoikNRA6AoiuJQ/GIA5B/o8YUwRVEUJTAISkhImGN9rjf4h/ro6GiaMGECXXfddXTw4EFOUxRFUZou+peQiqIoDkXnABRFURyKGgBFURSHogZAURTFoagBUBRFcShqABRFURxKszIAcZ3DaNgvU3ntiaR+UTTsgVQKiwm2Ui4cPa6Np/4/bW9tKYqiXHyajQEIDmtB3UfEU87uIso7UGqlngOi3/WaONr3SR6VnqywUmsHoj3yN115Gf6rLl6NS22ExwVTSZ7v51UURWlsmo0BaNsjktcHPs3jtZ2UwdFUmFNGR7efslJqBgblR3elUGhkS/rXCwdo9dP76MuFmZTYp7W1h++gLJRTdLzcSlEURbn4NIsvgsG7HzCpPe1ZecKj9w+vvdeYtrR16TGfvX94/hDtr5ZkUUXpWSv1HDjnoJ8nU0hEEG9/v7+Etv31GH8GCDf1vqGttUV0puIH2vG3Y676mfn2PEVRlAuBX34K4mKTPr4dFRwtoyNbzvfu4X2nj0ukwxsLKP+QbwILce98ZSwd/OIkFRw5baWeAwblsp8l094139OOt7Mpe2cR7195+iyPMhDvTxkUTV8uOkIZq3KpIOs0xXYMo8zNp3gfez6MSHL/aDq+p4jOVuoXsxVFuTAEfAgInnTrdqGUuanASnGn81VxvD6RUcRrX4jtVB3n92YwOg6J4VCShJMwqoDwRyaEsPFo1zvSba4hvlsEe/mVZWfYeLTrE0m7lue48jE/UFZU6XGkoSiK0lgEtAGAdw9P2tvELsQ4vms4fbcmt07iCiEvLz7Dgm0HZYbHBlPu3mIrxT3G78l4QODzD5dyHVpFBVNIeBANmJTkmlzGsbvey7H2VhRFuTAEtAGAdw/P2dvEbs8x8ZS7r8SvsfWw2JYUFOreba0TQyko+BKX6JvGAx5/TEqYawIYxgXzBZhUluXLRZnq/SuKcsEJWAMAYYV3/+3KXCvFHYSG4Fl7eyuoJuDdh1V5+RI+Al2GxfI5S/MriX4g9uQBRgRpY9uxoZFRCGL6LUODXHkwDgIMAUJWyFMURbmYBORbQAi5DJycTJmbCzx6/xDXmt4K8gX7Wzw4V8bH1cbGnvfNBydc9ZC6wdNH3B/HpF4R41YXvGHUpks4fwYwCt7eNlIURWksAtIA1PSKpggwQkPma5mKoiiKO/qHMIqiKA4l4F8DVRRFUeqHGgBFURSHogZAURTFoagBUBRFcShqABRFURyKGgBFURSHogZAURTFoagBqIEOQ/rR2P95koY9Ot1KaXwGJV5JMwb+lsJaRlgp/gNl//ryZymu1blvMTeEKekP0I1dJ1pbzZP09HRasGABLV68mBYuXEijR4+2chRh5syZ9MQTT1hbRJMmTaLnnnuOkpOTrRT/gbJxPXBdvIG6YD+ldgLaAAy8ayKNf/Vp1zLyyYeoVUyUlUvU/frh56Up3oGY/2HYArelsYxRoLBz506aPn06zZ07l0pL3X9WxDQOsngSPhgNGA9PefYyTCENBCC0vXr1omXLllkpF59PP/2Uhg8frsbaBwLWAEDc26X3pHVPvkTv3v0bXlbPmkenT3r+ZdD6cGTjdlr+77No/TMLrJTmzfv7ltFv10+nL46uoeziI/TUFw/T/K/+QKWV5376WjmfFStW0JQpU+ixxx7j7YceeshN6Pv06UMZGRlUUVFBaWlpVmq1+M+YMYPWrVvHx8PIJCQksEcdCKD+EFrUH4ayqfDRRx9xncaMGdMoo5DmRMD+FISEZTyJM0I3A35xK7UIbmmlVFNeVEKfP7+ICg4f5eOLc6t/KTTl8gG83v3OSvpuxTr+jPy4bp34c+aGrfTVonMeDkYeICI+zrWPeWx0xyQa+uBdFBJ57gffzlZU0tY/v81GpSYQprk86ceUVXiYLkscymkQZIizgNBL99g+/Ln8TDkt+eZ/aW/+N7zdLbY3Te59L4UEhfD2d/m7afHOF/kzyh6VOp5e2TaX8k6fYI//iqQR55WP9M7RPWjRjufdxB8jgbv6PkiJER2slPPr1hhAEFu3bu16mLdt20ZXXHEFHTp0iF5++WUW3MzMTHrhhRc4H/vZ01DGgAHV1xlAtJcuXcqfRYjDws794b+ZD7DPPffcQ8uXL2eBkTQRcHtZkiZ12bRpEyUmJvI+Zp3i4uJo9uzZvA3gUQ8ePJjmzZtHWVlZVqpnpOz4+Hjexghl/vz5LjG2twv9hXN56p/a+sxeNvBUfyBtyMnJcRm8rVu3usoFGOl06lT97MAwYgRh71epd25urqs/UDaMjtRF6mgv3+x38zoCKf/48ePn1d1pBOwIIHvHHhZfT/F58dwhykXZJ2jlI0/zCGHFg0+y+AsQfog48iDyHYcOdIWLYFiQnrf3EG/bwbEwIJ6O7Xv7OD4v8ra8upTFf8/y1bWKvwCBjQqNYW/8zzv/m/q2HczCDiDOrUOi2DtH/pacT+nWnlM5ro8Fnz/Y/1fOm7dpFrWP7OAxTo+0S9sO4n18FfCJve6iwvJTXDYWGJcLBcTiww8/pOLiYurevTv9/e9/p9jYWF4gWikpKfzQA4hOREQE7d5dXT+EArp27coeNjxtLCIKOGbq1Km0Z88elxcPwakv+fn5XEcRe9QlJCSExSo7O9utnhDPvDz3nyvHNupujhS8cdttt/G5pE0IVZkCfcMNN7BQIk9GFxBQCKm9z9CPqKf0mYR2pM/QP+gn2R9rHC/724FRioyM5GPfeOMNLktCMhBttBF9jXzUecKECSzMnq4HgPG1g3Kkjqb4A2kjRl+KdwLWAMDbRvgnMrEtx/+vf34We951ASK96eUl/Pn4199Sy9AQCo2K5O3agGGQUYF5LOqAOsFAgdyMA1TyfT61TkrgbV9A+GXZnkX8GSOBwvIC6hl3KQs8RHvD0bUuz3zNofepqEqUu8T0oCuSf8yfd+Vu4zx4+asOvsvevBnHH935Zi5HRgK+AAPUJqwtLd/7ppVSN+DxmbFyLHWZVD169Ch7cwDrkpIS/gxWrVrF4iWiiYce3p14lADeJATGzrBhw3j91ltv8bqhQHggygLqAqMAkcMi9YTQQQRhFEzQTnjEvgJR99Qu8Oyzz7oMAtboEzFM9j5DGain9BnqbYZ27PuLwbAbMAFGFKMzsGvXLu4TlInzQLRxDWWEg75HPvJwPdAvOB/APitXruTzme28+eabuRz7qMQEfYuyxGgJ2B/G0unePwjoSWB48/Dq4WlDzK/+9b0c/vGV/INHXHMG8M5X/sd/uo0Q6kPZqSIqL6ryAPv24u34Hp0ppHUEG4n6AKGH1y2Unymjk2Xe/+QG+9YUs48MjqL0+IF0rOiIz+LvD/CwwaMzl2nTprmJdH3BAw3xgsDgYYfIYSJQwDkgKNdffz0bnsZ6QwWIsMtn00s26ymGQgRZSEqqdmJgCGoDXi9E/ZFHHuF2wSM2gRdvGlwJuQCzLgBrqae0QfoLC85hhshQz+Bg3/7UyG4UYeC8GQ6AfVE3b6Ae3bp147Z7E3+Ac8BIwXgongloA2Cy4833qLKsnMLaXNyLDYOCuQaEpzAyuezuSZRTJf6+hn/swHNHyCenuNpbCgkKpZjQc/9UFtYynCKr8gXsa3r77SLcha6o4hSHlbyFhhqLho4AagPiBbFF7BnA6zRByEcMDwQG8eHGMALwkKOjo9n7lM+mkEKEJfQCgUIYyATb5eXlNQqgiRhWhEHgEYsRQL+OGjXKNUGNBXMAJtJnQ4cOZcG3i6l5LBbTYNdlpCIGRUY7MBxmuyHQYjQBPpuijX1NY4P5iNdff73WCfO69qUTaTYGICGtB4dhSr8/d7HxGd43vPALBUYg4W1i3N5OMieQ60pafH8W+P0nM9hjh+eOSWIReTPs823e1xTXKoGPAZ5CRiCvNJfe/vY1uqzdVTwx7As4BsYHoSYA4yET0b7QmCMAsH79el6PHDmSJ4klvOAJ0/vEZwiOhDYQa5ZJ1bqCEAVi2RBHGBwIUEFBgSvWjQXxcDkfBBieNDx1OR4TnGZ4BOKJEUttxhIiZ3rZoLKy0tVWnMMcAQAR/L59+3K8XLZxbmyjLmbYxQTng7iaQu4NCeugfCzw3GGoxQDDUKHuuIZSB6QB7IN9MScgeeDYsWP0zjvvcP2k/+xgdIVy7fcCjsGrt405EgwUgqqs6Bzrc8CAydZrHr+P+k4eR73GjeKlTbfU896yOZWVQ1HJidRr/LW8T5cRQ+nEN3uprKCQOl01iCpKSunYVndPESCOP2LOTEq79XoKi4uh6A7t+fiIhDa8f/uBaRQSHkaHP9vM++McCX2687lP7N5LSQPTqffNo111M4+tjaTIjlWiPIyuThlDIzr9hDpEdXaL1W8//iX1btOfbur+M86PbdWG/vz1i1RYfrJqn1zKKjpIE3r8gq5NHV9lHEbQlpzP6JPMD/lYlN0lphdtyf68ar9DVFw1Grip+52UEtWFy4WoT0m/n1Jad2ajgzr0qTImX5/YwuWfrizh/XHe05WllJH/NZf7XX7t7WoIl19+OQ/7t2zZwm//QGDhBfbs2ZPTICiFhYUcxmjXrh3985//5DQBXuK9997LcWMsMTEx9Morr9C+fft4QTgB4oo8iEWLFi34HBAciAvCH1deeSWFhoayWP7kJ1XtP32azzlkyBDq3bs3H4t9cMzTTz/N5504cSK/CfPxxx/zNsBxgwYN4rJgDLA9duxYuuWWW/h4hKrMt1aioqK4za1ateJRDeoLIFxz5syhO+64g88Nw3fixAnXubEf6gbxRT48ahijoqIi2rBhA++DPkKf9e/fn+P9UjbAPugX1AvHY0FZqAPaLf2NtkuaAIHt168f1wnHdejQwS1Wv3btWrrqqqtcZZvXA3U6ePAgT2BjktveLpSdmppKGzdupC+++ILCw8N5hDVw4EAuV0D/XHfddbR9+3Y3wwEwmsA1wOgMZZvtdhr6j2B+BiMAGI4N8//PNZ+AtEurjNXXS96rdyhIqR0IPTzShkzuQTi8vT6ouAMxtr8G21SA4a7pdVqEJDEq8eV12+ZMswkBNRUwB9HCNjmWcGlPoiozW5h94SZdnQY8eMTAzclfpXGBZw3xrylUdDHAvYA64e0hu7jDMGAuRsW/Gh0BNALml8iA+QU0xb/gYUeoBcN6+5e36oOOAOqOP0Ze/gTePeZX9PrVjhoARVEUh6IhIEVRFIeiBkBRFMWhqAFQFEVxKGoAFEVRHIoaAEVRFIfSrAxAXOcwGvbLVF57IqlfFA17IJXCYnz7ESsngL4YOr2j1z5TFKX50mwMQHBYC+o+Ip5ydhdR3gH3v+4DELqu18TRvk/yqPRk7T9i1ePaeBr+qy4uYcTxMB4/uiuFz9VcCIut/tOc0vxKXiuK4hyajZK17VH9O/4HPvX8M7Mpg6OpMKeMjm737S8jw+OCKSj4EmoVVT1awPFnKn6gsqJKqig9y2nNAbQP7aosO2OlKIriFJrFF8HgnQ+Y1J72rDzh0fuHF99rTFvauvSYT94/yut7SyKV5JVXCf4ZytxUQJ2vjKWQyKCqtArK+DiX9xn082QKiQjiY77fX0Lb/nqMP+N8Xa6Ko2+r9us/sT3vU3S8nL5akuUyHghH9b6hLX+GAO/42zGPdfcGRigpg6KtLaJvPjjhMm5mnr1sjF4GTk6myITqv4wEZt3t+WaeoijNi4D8NVA76ePbUcHRMjqy5XzvHoKWPi6RDm8soPxDvglsVPtQikluRfkHS6llaAuKaBNMuftKKBpph05TcHgLuuxnybR3zfe04+1syt5ZxAai8vRZHmXEdgqnhN6RlJjemnYtz6ED6/N5BAFjgnwR6C8XHaGMVblsIJL7R9PxPUV0trJ2e9z/p+0psm0obXj1MO1dm1c16snncj3lmWWHRrakIf+Wwm3ZvDiLj0ObYNQg9DBqZr69XYqiNC8CPgQET7p1u1D20j3RucoTBycyinjtC/HdIuhUdhkVHi+jqMRQDpMUVm23DGlBp09VUMchMexti8eNUQUEUrxmrIOCW9Cu93LO8+oxOmjXJ5INg4xGEG7yNbQk7d3xt+zz9kfZ4bHBbnm5e4s5lNUyNIiNUHnxGVeYDIKPsjA6AT3HxHM7MMIBPD9wCXGbFUVpfgS0AYB3D0/a28QuBC6+azh9tya3TnF7CDJEEROj8KCzdxeygAZVGYAfzlTlV4kshFVAPeBdi5CCk5mlLvFH3da/eJANBoxJSHgQDZiURCN/05UXHAtj4QsJvSJYpD21F4arJL/CLU9i/Jdc8gPFdgyj/MOlrr6AwJ8pP8sjI2lDmy7hrnqhjvvW5dUpNKUoSuAQ0AYA3j08Z28Tu/BoEc6oi4DBaEDg4fVCSD9fcJiPF7FE+Cco1L3bWleNEuBli5BCaBFW8QRGBwi3rH56n2v5clFmnQyUt7JhuOzAYLDon64u3zRSGMnIBDAbuKo2bF161K1u3vpWUZTAJ2ANAMId8O6/XVkdrrCDUAk8Wm9vBXnD22uR8KQrqwxAYXaVgP5QvQ1gMNLGtmNDA4MhQmqOEEwgwAi74Lj6APGHgYGhsYM8tFnyMNdgD49JmAp58PYFGAEYA4wiFEVxBgH5FhAEDm+qZG4u8OihQlxreiuoJiCM8KTtb75gchUg3XyDB5hv4PjyxhHKMsUXRsF8Q6gmpO0i5EDOb8+zl2vWG6MQGAyzrah731vaswETzLYpitK8CEgDAAGFp+tJNEUEERrS1xcVRVG8o38IoyiK4lACehJYURRFqT9qABRFURyKGgBFURSHogZAURTFoagBUBRFcShqABRFURyKGgBFURSH0mAD8MQTT9DixYt5rSiKogQODf4/gLVr19KmTZvommuuobi4ONq5c6eVoyiKojRl/BICysrKoszMTEpMTLRSFEVRlKaOzgEoiqI4FDUAiqIoDsVvBiA7O5tSUlIoOTnZSlEURVGaMn77U3hM/mISePr06ZSamkobNmywchRFUZSmiN9+DnrmzJlsAGbPnm2lKIqiKE0Zv84B5OXV7e8XFUVRlIuHTgIriqI4FDUAiqIoDsUvBgBv/uANILwJpCiKogQGDTYA+A2gP/7xj/x5/fr1vFYURVGaPvqn8IqiKA5F5wAURVEcihoARVEUh6IGQFEUxaGoAVAURXEoagAURVEcihoARVEUh6IGQFEUxZEQ/T+j0c7VVRaO6wAAAABJRU5ErkJggg==;" vertex="1" parent="1">
          <mxGeometry x="290" y="440" width="384" height="125" as="geometry" />
        </mxCell>
        <mxCell id="a-y4toOQ26onBlMXvGrg-3" value="" style="endArrow=classic;html=1;rounded=0;strokeColor=#FF0000;strokeWidth=2;" edge="1" parent="1">
          <mxGeometry width="50" height="50" relative="1" as="geometry">
            <mxPoint x="620" y="380" as="sourcePoint" />
            <mxPoint x="620" y="430" as="targetPoint" />
          </mxGeometry>
        </mxCell>
        <mxCell id="a-y4toOQ26onBlMXvGrg-4" value="Mock (Not a real object)" style="text;html=1;align=center;verticalAlign=middle;resizable=0;points=[];autosize=1;strokeColor=none;fillColor=none;fontStyle=1;fontSize=14;fontColor=#FF0000;" vertex="1" parent="1">
          <mxGeometry x="540" y="350" width="170" height="30" as="geometry" />
        </mxCell>
        <mxCell id="a-y4toOQ26onBlMXvGrg-7" value="" style="endArrow=classic;html=1;rounded=0;strokeColor=#00FF00;strokeWidth=2;" edge="1" parent="1">
          <mxGeometry width="50" height="50" relative="1" as="geometry">
            <mxPoint x="490" y="543" as="sourcePoint" />
            <mxPoint x="490" y="523" as="targetPoint" />
          </mxGeometry>
        </mxCell>
        <mxCell id="a-y4toOQ26onBlMXvGrg-8" value="Dependency" style="text;html=1;align=center;verticalAlign=middle;resizable=0;points=[];autosize=1;strokeColor=none;fillColor=none;fontStyle=1;fontSize=14;fontColor=#00FF00;" vertex="1" parent="1">
          <mxGeometry x="440" y="535" width="100" height="30" as="geometry" />
        </mxCell>
        <mxCell id="a-y4toOQ26onBlMXvGrg-9" value="" style="endArrow=classic;html=1;rounded=0;strokeColor=#000000;strokeWidth=2;" edge="1" parent="1">
          <mxGeometry width="50" height="50" relative="1" as="geometry">
            <mxPoint x="410" y="380" as="sourcePoint" />
            <mxPoint x="410" y="430" as="targetPoint" />
          </mxGeometry>
        </mxCell>
        <mxCell id="a-y4toOQ26onBlMXvGrg-10" value="Method under test" style="text;html=1;align=center;verticalAlign=middle;resizable=0;points=[];autosize=1;strokeColor=none;fillColor=none;fontStyle=1;fontSize=14;fontColor=#000000;" vertex="1" parent="1">
          <mxGeometry x="340" y="350" width="140" height="30" as="geometry" />
        </mxCell>
      </root>
    </mxGraphModel>
  </diagram>
</mxfile>
